<svg width="23" height="22" viewBox="0 0 23 22" fill="none" xmlns="http://www.w3.org/2000/svg">
<path fill-rule="evenodd" clip-rule="evenodd" d="M22.3281 9.81642V20.4196C22.3281 21.2954 21.7396 22 21.0081 22H14.6281C14.2651 22 13.9681 21.6444 13.9681 21.2098V15.097C13.9681 14.6624 13.6711 14.3068 13.3081 14.3068H9.34813C8.98513 14.3068 8.68812 14.6624 8.68812 15.097V21.2098C8.68812 21.6444 8.39112 22 8.02812 22H1.64813C0.916625 22 0.328125 21.2954 0.328125 20.4196V9.81642C0.328125 9.57936 0.416125 9.35548 0.570125 9.20403L10.9101 0.177791C11.1521 -0.0592637 11.5041 -0.0592637 11.7516 0.177791L22.0916 9.20403C22.2401 9.35548 22.3281 9.57936 22.3281 9.81642Z" />
<mask id="mask0" style="mask-type:alpha" maskUnits="userSpaceOnUse" x="0" y="0" width="23" height="22">
<path fill-rule="evenodd" clip-rule="evenodd" d="M22.3281 9.81642V20.4196C22.3281 21.2954 21.7396 22 21.0081 22H14.6281C14.2651 22 13.9681 21.6444 13.9681 21.2098V15.097C13.9681 14.6624 13.6711 14.3068 13.3081 14.3068H9.34813C8.98513 14.3068 8.68812 14.6624 8.68812 15.097V21.2098C8.68812 21.6444 8.39112 22 8.02812 22H1.64813C0.916625 22 0.328125 21.2954 0.328125 20.4196V9.81642C0.328125 9.57936 0.416125 9.35548 0.570125 9.20403L10.9101 0.177791C11.1521 -0.0592637 11.5041 -0.0592637 11.7516 0.177791L22.0916 9.20403C22.2401 9.35548 22.3281 9.57936 22.3281 9.81642Z" fill="white"/>
</mask>
<g mask="url(#mask0)">
</g>
</svg>